<svg xmlns="http://www.w3.org/2000/svg" width="154" height="22" fill="none" viewBox="0 0 154 22"><path fill="#2d314d" d="M45.237 3.48q2.084 0 3.641.824 1.577.807 2.422 2.274.844 1.466.844 3.354 0 1.87-.863 3.337-.845 1.466-2.421 2.31-1.559.824-3.623.824H40V3.48zm-.282 9.752q1.615 0 2.534-.862.92-.861.92-2.438 0-1.595-.92-2.456-.919-.88-2.534-.88H43.68v6.636zm10.706-8.066q-.975 0-1.577-.513a1.72 1.72 0 0 1-.582-1.32q0-.807.582-1.338.6-.532 1.577-.532.957 0 1.54.532.6.531.6 1.338 0 .787-.6 1.32-.583.513-1.54.513m1.82.953v10.284h-3.678V6.12zm5.981-.128q1.07 0 1.859.422.806.421 1.239 1.136V6.12h3.678v10.174q0 1.449-.563 2.604-.562 1.173-1.764 1.87-1.183.696-3.003.696-2.44 0-3.904-1.118-1.465-1.119-1.671-3.043h3.623q.112.494.563.77.45.275 1.164.275 1.876 0 1.876-2.054v-1.32q-.43.716-1.238 1.137-.788.422-1.859.422a4.25 4.25 0 0 1-2.29-.642q-1.013-.642-1.614-1.833-.582-1.21-.582-2.805t.582-2.786q.6-1.193 1.614-1.833a4.25 4.25 0 0 1 2.29-.642m3.097 5.261q0-.99-.563-1.558a1.8 1.8 0 0 0-1.351-.568q-.825 0-1.37.568-.545.55-.545 1.558 0 .99.545 1.577.545.568 1.37.568.808 0 1.351-.568.564-.57.564-1.577m7.633-6.087q-.976 0-1.576-.513a1.72 1.72 0 0 1-.582-1.32q0-.807.582-1.338.6-.532 1.576-.532.957 0 1.54.532.6.531.6 1.338 0 .787-.6 1.32-.583.513-1.54.513m1.82.953v10.284h-3.678V6.12zm8.309 7.223v3.061h-1.596q-4.035 0-4.035-3.904V9.107h-1.295V6.12h1.295V3.626h3.698V6.12h1.914v2.988H82.39v3.447q0 .42.187.605.207.183.676.183zm1.087-2.09q0-1.595.582-2.786.6-1.193 1.614-1.833a4.25 4.25 0 0 1 2.29-.642q1.088 0 1.877.422.788.421 1.22 1.136V6.12h3.679v10.284h-3.679v-1.43q-.431.716-1.239 1.137-.788.422-1.858.422a4.25 4.25 0 0 1-2.29-.642q-1.014-.642-1.614-1.833-.582-1.21-.582-2.805m7.583 0q0-.99-.563-1.558a1.8 1.8 0 0 0-1.352-.568q-.825 0-1.37.568-.544.55-.544 1.558 0 .99.544 1.577.545.568 1.37.568.807 0 1.352-.568.563-.57.563-1.577m9.454-8.415v13.565h-3.679V2.838zm5.775 4.712a2.9 2.9 0 0 1 1.22-1.137q.788-.422 1.858-.422 1.257 0 2.271.642 1.032.64 1.614 1.833.601 1.191.601 2.786t-.601 2.805q-.582 1.191-1.614 1.833a4.16 4.16 0 0 1-2.271.642q-1.07 0-1.858-.404a3.04 3.04 0 0 1-1.22-1.154v1.43h-3.679V2.837h3.679zm3.829 3.702q0-1.008-.563-1.558a1.8 1.8 0 0 0-1.352-.568q-.807 0-1.37.568-.544.568-.544 1.558 0 1.008.544 1.577.563.568 1.37.568t1.352-.568q.563-.587.563-1.577m4.649 0q0-1.595.582-2.786.6-1.193 1.614-1.833a4.25 4.25 0 0 1 2.29-.642q1.088 0 1.877.422.788.421 1.22 1.136V6.12h3.679v10.284h-3.679v-1.43a3.07 3.07 0 0 1-1.239 1.137q-.788.422-1.858.422a4.25 4.25 0 0 1-2.29-.642q-1.014-.642-1.614-1.833-.582-1.21-.582-2.805m7.583 0q0-.99-.563-1.558a1.8 1.8 0 0 0-1.351-.568q-.827 0-1.371.568-.544.55-.544 1.558 0 .99.544 1.577.544.568 1.371.568.807 0 1.351-.568.563-.57.563-1.577m12.664-5.225q1.821 0 2.891 1.191 1.07 1.174 1.07 3.19v5.994h-3.679v-5.517q0-.88-.469-1.375-.47-.514-1.258-.514-.826 0-1.295.514-.47.495-.47 1.375v5.517h-3.679V6.12h3.679v1.467a3.54 3.54 0 0 1 1.314-1.118q.827-.44 1.896-.44m12.568 10.374-2.91-4.216v4.216h-3.679V2.838h3.679v7.314l2.91-4.033h4.411l-4.148 5.17L154 16.403z"/><path fill="url(#paint0_linear_72149_7)" fill-rule="evenodd" d="M10.803.537 0 20.241h5.986L16.788.537z" clip-rule="evenodd"/><path fill="url(#paint1_linear_72149_7)" fill-rule="evenodd" d="M18.17.537 7.369 20.241h5.986L24.158.537z" clip-rule="evenodd" opacity=".5"/><path fill="url(#paint2_linear_72149_7)" fill-rule="evenodd" d="M25.54.537 14.736 20.241h5.986L31.525.537z" clip-rule="evenodd" opacity=".15"/><defs><linearGradient id="paint0_linear_72149_7" x1="5.133" x2="-10.195" y1="-6.885" y2="10.45" gradientUnits="userSpaceOnUse"><stop stop-color="#33d35e"/><stop offset="1" stop-color="#2ab6d9"/></linearGradient><linearGradient id="paint1_linear_72149_7" x1="12.501" x2="-2.826" y1="-6.885" y2="10.45" gradientUnits="userSpaceOnUse"><stop stop-color="#33d35e"/><stop offset="1" stop-color="#2ab6d9"/></linearGradient><linearGradient id="paint2_linear_72149_7" x1="19.869" x2="4.542" y1="-6.885" y2="10.45" gradientUnits="userSpaceOnUse"><stop stop-color="#33d35e"/><stop offset="1" stop-color="#2ab6d9"/></linearGradient></defs></svg>