<svg xmlns="http://www.w3.org/2000/svg" width="153" height="21" fill="none" viewBox="0 0 153 21"><path fill="#fff" d="M45.191 2.693q2.065 0 3.61.824 1.561.807 2.4 2.274.837 1.466.837 3.354 0 1.87-.856 3.337-.837 1.465-2.4 2.31-1.545.825-3.591.824H40V2.693zm-.28 9.752q1.602 0 2.513-.861.911-.862.911-2.439 0-1.595-.911-2.456-.912-.88-2.512-.88h-1.265v6.636zM55.524 4.38q-.967 0-1.563-.514a1.72 1.72 0 0 1-.577-1.32q0-.807.577-1.338.595-.532 1.563-.532.948 0 1.525.532.596.531.596 1.338 0 .787-.596 1.32-.577.513-1.525.513m1.804.952v10.284h-3.646V5.332zm5.929-.127q1.06 0 1.842.422.8.421 1.227 1.136v-1.43h3.647v10.175q0 1.448-.558 2.603-.558 1.173-1.749 1.87-1.172.696-2.977.696-2.418 0-3.87-1.118t-1.656-3.043h3.591q.112.494.558.77.447.275 1.154.275 1.86 0 1.86-2.053v-1.32a3.05 3.05 0 0 1-1.227 1.136q-.781.422-1.842.422a4.2 4.2 0 0 1-2.27-.642q-1.005-.642-1.6-1.833-.577-1.21-.577-2.805t.577-2.786q.594-1.193 1.6-1.833a4.2 4.2 0 0 1 2.27-.642m3.07 5.261q0-.99-.559-1.558a1.77 1.77 0 0 0-1.34-.568q-.818 0-1.357.568-.54.55-.54 1.558 0 .99.54 1.577.54.568 1.358.568.8 0 1.34-.568.557-.57.557-1.577m7.567-6.085q-.967 0-1.563-.514a1.72 1.72 0 0 1-.576-1.32q0-.807.576-1.338.596-.532 1.563-.532.949 0 1.526.532.595.531.595 1.338 0 .787-.595 1.32-.577.513-1.526.513m1.805.952v10.284h-3.647V5.332zm8.235 7.224v3.061h-1.581q-4 0-4-3.904V8.32h-1.284V5.332h1.284V2.84h3.665v2.493h1.898V8.32h-1.898v3.447q0 .42.186.605.204.183.67.183zm1.077-2.09q0-1.595.577-2.786.595-1.193 1.6-1.833a4.2 4.2 0 0 1 2.27-.642q1.08 0 1.86.422.783.421 1.21 1.136v-1.43h3.647v10.284h-3.647v-1.43a3.05 3.05 0 0 1-1.228 1.137q-.78.422-1.842.422a4.2 4.2 0 0 1-2.27-.642q-1.005-.642-1.6-1.833-.576-1.21-.577-2.805m7.517 0q0-.99-.558-1.558a1.77 1.77 0 0 0-1.34-.568q-.818 0-1.358.568-.54.55-.54 1.558 0 .99.54 1.577.54.568 1.358.568.8 0 1.34-.568.558-.57.558-1.577m9.372-8.415v13.566h-3.647V2.051zm5.723 4.712a2.9 2.9 0 0 1 1.209-1.136q.782-.422 1.842-.422 1.247 0 2.252.642 1.023.64 1.6 1.833.595 1.191.595 2.786t-.595 2.805q-.577 1.191-1.6 1.833a4.1 4.1 0 0 1-2.252.642q-1.06 0-1.842-.403a3.03 3.03 0 0 1-1.209-1.155v1.43h-3.647V2.05h3.647zm3.796 3.703q0-1.008-.559-1.558a1.77 1.77 0 0 0-1.339-.568q-.8 0-1.358.568-.54.568-.54 1.558 0 1.008.54 1.577.558.568 1.358.568t1.339-.568q.56-.587.559-1.577m4.608 0q0-1.595.577-2.786.595-1.193 1.6-1.833a4.2 4.2 0 0 1 2.27-.642q1.078 0 1.86.422.781.421 1.21 1.136v-1.43h3.646v10.284h-3.646v-1.43a3.06 3.06 0 0 1-1.228 1.137q-.782.422-1.842.422a4.2 4.2 0 0 1-2.27-.642q-1.005-.642-1.6-1.833-.577-1.21-.577-2.805m7.517 0q0-.99-.558-1.558a1.77 1.77 0 0 0-1.34-.568q-.82 0-1.358.568-.54.55-.54 1.558 0 .99.54 1.577.539.568 1.358.568.8 0 1.34-.568.558-.57.558-1.577m12.553-5.225q1.804 0 2.865 1.192 1.06 1.173 1.061 3.19v5.994h-3.647V10.1q0-.88-.465-1.375-.465-.514-1.247-.514-.819 0-1.284.514-.465.495-.465 1.375v5.517h-3.646V5.332h3.646V6.8a3.5 3.5 0 0 1 1.303-1.118q.818-.44 1.879-.44m12.457 10.374-2.884-4.216v4.216h-3.646V2.051h3.646v7.314l2.884-4.033h4.373l-4.112 5.17L153 15.616z"/><path fill="url(#paint0_linear_72139_4286)" fill-rule="evenodd" d="M10.803.324 0 20.028h5.986L16.788.324z" clip-rule="evenodd"/><path fill="url(#paint1_linear_72139_4286)" fill-rule="evenodd" d="M18.17.324 7.369 20.028h5.986L24.158.324z" clip-rule="evenodd" opacity=".5"/><path fill="url(#paint2_linear_72139_4286)" fill-rule="evenodd" d="M25.54.324 14.736 20.028h5.986L31.525.324z" clip-rule="evenodd" opacity=".15"/><defs><linearGradient id="paint0_linear_72139_4286" x1="5.133" x2="-10.195" y1="-7.098" y2="10.237" gradientUnits="userSpaceOnUse"><stop stop-color="#33d35e"/><stop offset="1" stop-color="#2ab6d9"/></linearGradient><linearGradient id="paint1_linear_72139_4286" x1="12.501" x2="-2.826" y1="-7.098" y2="10.237" gradientUnits="userSpaceOnUse"><stop stop-color="#33d35e"/><stop offset="1" stop-color="#2ab6d9"/></linearGradient><linearGradient id="paint2_linear_72139_4286" x1="19.869" x2="4.542" y1="-7.098" y2="10.237" gradientUnits="userSpaceOnUse"><stop stop-color="#33d35e"/><stop offset="1" stop-color="#2ab6d9"/></linearGradient></defs></svg>